# xmcd
#
# Track frame offsets:
#   150
#   25181
#   115238
#   134004
#   154852
#   170246
#   187321
#   207474
#   225709
#   245033
#   272913
#   289978
#   314476
#   336094
#
# Disc length: 4719 seconds
#
# Revision: 0
# Processed by: cddbd v1.5.2PL0 Copyright (c) Steve Scherf et al.
# Submitted via: GXTranscoder 2.0.1939
#
DISCID=e7126d0e
DTITLE=Hip Hop - Volkan Auswahl
DYEAR=1900
DGENRE=Hip Hop
TTITLE0=Hip Hop
TTITLE1=Hip Hop
TTITLE2=Hip Hop
TTITLE3=Hip Hop
TTITLE4=Hip Hop
TTITLE5=Hip Hop
TTITLE6=Hip Hop
TTITLE7=Hip Hop
TTITLE8=Hip Hop
TTITLE9=Hip Hop
TTITLE10=Hip Hop
TTITLE11=Hip Hop
TTITLE12=Hip Hop
TTITLE13=Hip Hop
EXTD=
EXTT0=
EXTT1=
EXTT2=
EXTT3=
EXTT4=
EXTT5=
EXTT6=
EXTT7=
EXTT8=
EXTT9=
EXTT10=
EXTT11=
EXTT12=
EXTT13=
PLAYORDER=
